<svg width="1440" height="1024" viewBox="0 0 1440 1024" fill="none" xmlns="http://www.w3.org/2000/svg">
<g clip-path="url(#clip0_1044_32)">
<rect width="1440" height="1024" fill="#D9D9D9"/>
<path d="M425 839.5C557 918 523.5 1022.5 523.5 1022.5H1V460.5C1 460.5 91 504 200 404.5C309 305 323.5 494.5 346.5 613C369.5 731.5 293 761 425 839.5Z" fill="#AB9680" fill-opacity="0.8"/>
<path d="M106.393 97.7604V99.4296H92.4269V112.309H106.393V113.978H92.4269V128.611H90.4463V97.7604H106.399H106.393Z" fill="black"/>
<path d="M245.782 97.7604V99.4296H231.816V112.309H245.782V113.978H231.816V128.611H229.835V97.7604H245.788H245.782Z" fill="black"/>
<path d="M113.425 126.941H124.923V128.611H111.438V97.7604H113.419V126.941H113.425Z" fill="black"/>
<path d="M143.543 97.7604H141.34L129.974 128.611H132.135L135.085 120.517H149.756L152.705 128.611H154.867L143.543 97.7604ZM135.699 118.805L142.441 100.414L149.142 118.805H135.705H135.699Z" fill="black"/>
<path d="M288.531 97.7604H286.328L274.962 128.611H277.123L280.073 120.517H294.744L297.694 128.611H299.855L288.531 97.7604ZM280.687 118.805L287.43 100.414L294.13 118.805H280.693H280.687Z" fill="black"/>
<path d="M203.352 97.7604H201.149L189.783 128.611H191.944L194.894 120.517H209.565L212.515 128.611H214.676L203.352 97.7604ZM195.508 118.805L202.251 100.414L208.951 118.805H195.514H195.508Z" fill="black"/>
<path d="M177.701 97.7604L165.889 128.611H163.686L151.923 97.7604H154.084L164.794 126.281L175.588 97.7604H177.701Z" fill="black"/>
<path d="M184.733 97.7604V128.611H182.752V97.7604H184.733Z" fill="black"/>
<path d="M267.533 128.611L259.598 115.473H252.814V128.611H250.833V97.7604H259.339C262.777 97.7604 265.353 98.5649 267.075 100.18C268.791 101.789 269.652 103.933 269.652 106.599C269.652 108.97 268.984 110.928 267.647 112.465C266.311 114.002 264.366 114.951 261.808 115.299L269.917 128.617H267.539L267.533 128.611ZM252.814 113.798H259.424C262.157 113.798 264.198 113.137 265.546 111.822C266.895 110.502 267.575 108.76 267.575 106.593C267.575 101.873 264.83 99.5196 259.333 99.5196H252.814V113.804V113.798Z" fill="black"/>
<path d="M327.023 128.611H325.042L306.886 100.973V128.611H304.905V97.7604H306.886L325.042 125.308V97.7604H327.023V128.611Z" fill="black"/>
<path d="M334.409 105.236C335.686 102.894 337.45 101.063 339.695 99.7418C341.941 98.4208 344.463 97.7604 347.25 97.7604C350.778 97.7604 353.74 98.5649 356.148 100.174C358.556 101.783 360.32 104.035 361.434 106.941H359.14C358.261 104.641 356.798 102.828 354.757 101.489C352.717 100.156 350.212 99.4836 347.244 99.4836C344.866 99.4836 342.705 100.036 340.767 101.141C338.828 102.246 337.299 103.843 336.185 105.926C335.066 108.01 334.512 110.441 334.512 113.227C334.512 116.013 335.072 118.391 336.185 120.445C337.299 122.498 338.828 124.083 340.767 125.206C342.705 126.329 344.866 126.887 347.244 126.887C350.212 126.887 352.717 126.221 354.757 124.882C356.798 123.549 358.261 121.73 359.14 119.43H361.434C360.314 122.33 358.556 124.588 356.148 126.197C353.74 127.806 350.772 128.611 347.25 128.611C344.457 128.611 341.941 127.956 339.695 126.647C337.45 125.338 335.686 123.519 334.409 121.177C333.133 118.835 332.495 116.188 332.495 113.227C332.495 110.267 333.133 107.577 334.409 105.236Z" fill="black"/>
<path d="M374.221 126.653C371.927 125.344 370.139 123.513 368.845 121.159C367.55 118.805 366.906 116.146 366.906 113.185C366.906 110.225 367.55 107.535 368.845 105.194C370.139 102.852 371.927 101.027 374.221 99.7238C376.514 98.4148 379.079 97.7604 381.932 97.7604C384.786 97.7604 387.35 98.4148 389.644 99.7238C391.938 101.033 393.726 102.858 395.02 105.194C396.314 107.535 396.958 110.201 396.958 113.185C396.958 116.17 396.314 118.799 395.02 121.159C393.726 123.513 391.938 125.344 389.644 126.653C387.35 127.962 384.78 128.617 381.932 128.617C379.085 128.617 376.514 127.962 374.221 126.653ZM388.542 125.212C390.511 124.089 392.058 122.498 393.19 120.427C394.322 118.361 394.888 115.947 394.888 113.185C394.888 110.423 394.322 107.974 393.19 105.902C392.058 103.837 390.511 102.24 388.542 101.117C386.574 99.994 384.371 99.4356 381.932 99.4356C379.494 99.4356 377.291 99.994 375.322 101.117C373.354 102.24 371.795 103.831 370.651 105.902C369.507 107.968 368.935 110.399 368.935 113.185C368.935 115.971 369.507 118.355 370.651 120.427C371.795 122.492 373.354 124.089 375.322 125.212C377.291 126.335 379.494 126.893 381.932 126.893C384.371 126.893 386.574 126.335 388.542 125.212Z" fill="black"/>
<path d="M138.505 92.1163V94.5721L146.331 88.8439V86.3882L138.505 92.1163Z" fill="black"/>
<path d="M231.387 155.414C230.912 155.204 230.539 154.903 230.274 154.531C230.003 154.153 229.864 153.721 229.858 153.222H231.123C231.165 153.648 231.339 154.003 231.652 154.297C231.959 154.585 232.411 154.735 233.001 154.735C233.591 154.735 234.012 154.597 234.337 154.315C234.662 154.033 234.825 153.673 234.825 153.228C234.825 152.88 234.729 152.598 234.536 152.382C234.343 152.165 234.103 151.997 233.82 151.889C233.531 151.775 233.145 151.655 232.658 151.523C232.056 151.367 231.574 151.211 231.213 151.055C230.852 150.899 230.545 150.652 230.286 150.322C230.027 149.986 229.901 149.542 229.901 148.977C229.901 148.485 230.027 148.046 230.28 147.662C230.533 147.278 230.888 146.984 231.345 146.78C231.803 146.575 232.327 146.467 232.917 146.467C233.771 146.467 234.47 146.677 235.012 147.104C235.553 147.53 235.86 148.095 235.933 148.797H234.626C234.584 148.449 234.398 148.143 234.078 147.878C233.759 147.614 233.332 147.482 232.802 147.482C232.309 147.482 231.899 147.608 231.586 147.866C231.273 148.125 231.117 148.479 231.117 148.941C231.117 149.271 231.207 149.542 231.4 149.746C231.586 149.956 231.815 150.112 232.092 150.22C232.363 150.328 232.748 150.454 233.248 150.592C233.85 150.754 234.331 150.923 234.699 151.079C235.066 151.235 235.379 151.487 235.638 151.817C235.897 152.153 236.029 152.604 236.029 153.174C236.029 153.618 235.909 154.033 235.674 154.423C235.439 154.813 235.09 155.132 234.632 155.372C234.169 155.612 233.627 155.738 233.001 155.738C232.375 155.738 231.863 155.63 231.387 155.42V155.414Z" fill="black"/>
<path d="M245.011 153.624H241.044L240.316 155.642H239.063L242.35 146.623H243.723L246.998 155.642H245.746L245.017 153.624H245.011ZM244.674 152.664L243.031 148.082L241.387 152.664H244.674Z" fill="black"/>
<path d="M251.458 146.569V152.31C251.458 153.114 251.657 153.715 252.054 154.105C252.452 154.495 253 154.693 253.704 154.693C254.408 154.693 254.944 154.495 255.341 154.105C255.739 153.715 255.937 153.114 255.937 152.31V146.569H257.123V152.298C257.123 153.054 256.973 153.691 256.666 154.201C256.359 154.717 255.949 155.102 255.432 155.354C254.914 155.606 254.336 155.732 253.692 155.732C253.048 155.732 252.47 155.606 251.952 155.354C251.434 155.102 251.025 154.717 250.724 154.201C250.423 153.685 250.272 153.048 250.272 152.298V146.569H251.458ZM254.968 144.606L252.187 146.089V145.206L254.968 143.579V144.606Z" fill="black"/>
<path d="M266.376 147.122C267.104 147.488 267.658 148.016 268.043 148.701C268.429 149.385 268.621 150.19 268.621 151.121C268.621 152.051 268.429 152.856 268.043 153.534C267.658 154.213 267.098 154.735 266.376 155.096C265.647 155.456 264.792 155.636 263.799 155.636H260.97V146.563H263.799C264.792 146.563 265.647 146.75 266.376 147.116V147.122ZM266.484 153.733C267.104 153.114 267.411 152.243 267.411 151.121C267.411 149.998 267.098 149.115 266.478 148.479C265.858 147.848 264.961 147.53 263.799 147.53H262.156V154.663H263.799C264.973 154.663 265.87 154.351 266.484 153.733Z" fill="black"/>
<path d="M273.246 147.53V150.562H276.563V151.541H273.246V154.663H276.954V155.642H272.06V146.557H276.954V147.536H273.246V147.53Z" fill="black"/>
<path d="M290.758 155.636L288.59 151.925H287.158V155.636H285.972V146.563H288.909C289.596 146.563 290.18 146.677 290.649 146.912C291.125 147.146 291.48 147.464 291.715 147.86C291.95 148.257 292.064 148.713 292.064 149.229C292.064 149.854 291.883 150.406 291.522 150.881C291.161 151.355 290.619 151.673 289.897 151.829L292.178 155.63H290.758V155.636ZM287.158 150.977H288.903C289.548 150.977 290.029 150.82 290.354 150.502C290.673 150.184 290.836 149.764 290.836 149.235C290.836 148.707 290.679 148.281 290.36 147.986C290.041 147.692 289.56 147.542 288.903 147.542H287.158V150.977Z" fill="black"/>
<path d="M296.953 147.53V150.562H300.27V151.541H296.953V154.663H300.661V155.642H295.767V146.557H300.661V147.536H296.953V147.53Z" fill="black"/>
<path d="M311.214 149.199C310.961 148.671 310.594 148.263 310.118 147.968C309.643 147.674 309.083 147.53 308.451 147.53C307.819 147.53 307.247 147.674 306.735 147.968C306.223 148.257 305.826 148.677 305.537 149.217C305.248 149.758 305.098 150.388 305.098 151.097C305.098 151.805 305.242 152.43 305.537 152.97C305.826 153.51 306.229 153.925 306.735 154.213C307.241 154.501 307.819 154.651 308.451 154.651C309.336 154.651 310.07 154.387 310.642 153.859C311.214 153.33 311.551 152.616 311.648 151.709H308.023V150.748H312.918V151.661C312.846 152.406 312.611 153.09 312.213 153.709C311.816 154.327 311.286 154.819 310.636 155.18C309.986 155.54 309.258 155.72 308.457 155.72C307.614 155.72 306.844 155.522 306.145 155.126C305.447 154.729 304.899 154.183 304.496 153.48C304.092 152.778 303.888 151.985 303.888 151.097C303.888 150.208 304.092 149.415 304.496 148.707C304.899 147.998 305.453 147.452 306.145 147.056C306.844 146.659 307.608 146.461 308.457 146.461C309.42 146.461 310.275 146.701 311.022 147.176C311.768 147.656 312.31 148.329 312.647 149.193H311.226L311.214 149.199Z" fill="black"/>
<path d="M317.529 147.53V150.562H320.846V151.541H317.529V154.663H321.237V155.642H316.343V146.557H321.237V147.536H317.529V147.53Z" fill="black"/>
<path d="M332.049 155.636H330.863L326.089 148.413V155.636H324.903V146.551H326.089L330.863 153.763V146.551H332.049V155.636Z" fill="black"/>
<path d="M337.124 147.53V150.562H340.442V151.541H337.124V154.663H340.833V155.642H335.938V146.557H340.833V147.536H337.124V147.53Z" fill="black"/>
<path d="M349.285 155.636L347.118 151.925H345.685V155.636H344.499V146.563H347.437C348.123 146.563 348.707 146.677 349.177 146.912C349.652 147.146 350.007 147.464 350.242 147.86C350.477 148.257 350.591 148.713 350.591 149.229C350.591 149.854 350.411 150.406 350.05 150.881C349.688 151.355 349.146 151.673 348.424 151.829L350.706 155.63H349.285V155.636ZM345.685 150.977H347.431C348.075 150.977 348.557 150.82 348.882 150.502C349.201 150.184 349.363 149.764 349.363 149.235C349.363 148.707 349.207 148.281 348.888 147.986C348.569 147.692 348.087 147.542 347.431 147.542H345.685V150.977Z" fill="black"/>
<path d="M359.67 153.624H355.702L354.974 155.642H353.722L357.009 146.623H358.381L361.656 155.642H360.404L359.676 153.624H359.67ZM359.332 152.664L357.689 148.082L356.045 152.664H359.332Z" fill="black"/>
<path d="M370.554 146.569V147.53H368.074V155.636H366.888V147.53H364.396V146.569H370.554Z" fill="black"/>
<path d="M375.063 146.569V155.642H373.877V146.569H375.063Z" fill="black"/>
<path d="M386.471 146.569L383.039 155.642H381.667L378.235 146.569H379.5L382.359 154.393L385.219 146.569H386.471Z" fill="black"/>
<path d="M395.013 153.624H391.046L390.318 155.642H389.065L392.352 146.623H393.725L397 155.642H395.748L395.019 153.624H395.013ZM394.676 152.664L393.033 148.082L391.389 152.664H394.676Z" fill="black"/>
<path d="M366.026 205.128V216.271H377.559C403.67 216.271 424.854 237.373 424.854 263.441V823.467C424.854 849.51 403.696 870.638 377.559 870.638H366.026V881.781H542.432V870.638H530.899C504.787 870.638 483.604 849.536 483.604 823.467V216.296H744.717C806.641 216.296 856.825 266.349 856.825 328.111V368.977H867.997V205.102H366L366.026 205.128Z" fill="black" fill-opacity="0.1"/>
<path d="M1073.84 782.627V771.484H1062.31C1036.2 771.484 1015.01 750.382 1015.01 724.314V164.288C1015.01 138.245 1036.17 117.117 1062.31 117.117H1073.84V106H897.437V117.143H908.97C935.081 117.143 956.264 138.245 956.264 164.314V771.458H695.152C633.227 771.458 583.043 721.406 583.043 659.644V618.778H571.871V782.653H1073.87L1073.84 782.627Z" fill="black" fill-opacity="0.05"/>
<path d="M773.127 552.513H772.792C747.351 552.513 726.607 532.466 725.549 507.349V368.951H714.377V376.852C714.377 402.895 693.219 424.022 667.082 424.022H571.822V435.217H666.721H667.056C692.497 435.217 713.241 455.263 714.299 480.38V618.778H725.471V610.878C725.471 584.835 746.629 563.707 772.766 563.707H868.026V552.513H773.127Z" fill="black" fill-opacity="0.1"/>
<path d="M1121.5 883C1038 923.5 1089 1023 1089 1023H1439.5V863C1439.5 863 1352.5 863 1287 810C1221.5 757 1205 842.5 1121.5 883Z" fill="#AB9680"/>
<path d="M1183.31 213C1378.81 237.5 1313.29 304.184 1442.31 314.5V0H1109.31C1109.31 0 987.812 188.5 1183.31 213Z" fill="#AB9680" fill-opacity="0.8"/>
</g>
<defs>
<clipPath id="clip0_1044_32">
<rect width="1440" height="1024" fill="white"/>
</clipPath>
</defs>
</svg>
