<svg width="30" height="34" viewBox="0 0 30 34" fill="none" xmlns="http://www.w3.org/2000/svg">
<path d="M29.6802 0.358791C29.8365 0.534572 29.9416 0.759485 29.9818 1.00384C30.022 1.2482 29.9953 1.50052 29.9053 1.72749L17.5428 33.0037C17.4564 33.2224 17.3151 33.4081 17.1362 33.5377C16.9573 33.6674 16.7486 33.7355 16.5358 33.7337C16.3229 33.7319 16.1152 33.6602 15.9381 33.5275C15.761 33.3947 15.6222 33.2067 15.5388 32.9865L11.0785 21.2751L0.660933 16.2574C0.465835 16.163 0.299421 16.0068 0.182044 15.8077C0.0646667 15.6087 0.00141455 15.3756 2.34496e-05 15.1368C-0.00136765 14.898 0.0591626 14.6639 0.174211 14.4631C0.28926 14.2624 0.453839 14.1037 0.647821 14.0065L28.463 0.105692C28.6646 0.00506085 28.8885 -0.0246188 29.1054 0.0205555C29.3223 0.0657298 29.5241 0.183643 29.6802 0.358791ZM3.82314 15.1074L12.3395 19.211C12.597 19.3358 12.802 19.5672 12.912 19.8573L16.5616 29.4333L26.7541 3.64663L3.82314 15.1074Z" fill="white"/>
</svg>
