<svg width="166" height="60" viewBox="0 0 166 60" fill="none" xmlns="http://www.w3.org/2000/svg">
<g clip-path="url(#clip0_1006_2)">
<path d="M6.23055e-07 7.66694V8.52878H0.900609C2.93957 8.52878 4.59371 10.1609 4.59371 12.1771V55.4918C4.59371 57.5061 2.94158 59.1402 0.900609 59.1402H6.23055e-07V60.002H13.7751V59.1402H12.8745C10.8355 59.1402 9.18137 57.508 9.18137 55.4918V8.53077H29.571C34.4065 8.53077 38.3252 12.4021 38.3252 17.179V20.3397H39.1976V7.66495H-0.00201416L6.23055e-07 7.66694Z" fill="black"/>
<path d="M55.2716 52.3331V51.4712H54.371C52.332 51.4712 50.6779 49.8391 50.6779 47.8229V4.50821C50.6779 2.49395 52.33 0.859844 54.371 0.859844H55.2716V0H41.4965V0.861834H42.3971C44.4361 0.861834 46.0902 2.49395 46.0902 4.5102V51.4692H25.7006C20.8651 51.4692 16.9464 47.5979 16.9464 42.821V39.6603H16.074V52.335H55.2736L55.2716 52.3331Z" fill="black"/>
<path d="M31.7893 34.5351H31.7631C29.7765 34.5351 28.1566 32.9846 28.074 31.042V20.3377H27.2016V20.9487C27.2016 22.963 25.5495 24.5971 23.5085 24.5971H16.0699V25.4629H23.4803H23.5065C25.4931 25.4629 27.113 27.0134 27.1956 28.956V39.6603H28.068V39.0493C28.068 37.035 29.7201 35.4009 31.7611 35.4009H39.1997V34.5351H31.7893Z" fill="black"/>
<path d="M62.6703 20.4188V20.9641H57.7042V25.172H62.6703V25.7173H57.7042V30.498H57V20.4188H62.6724H62.6703Z" fill="black"/>
<path d="M112.233 20.4188V20.9641H107.266V25.172H112.233V25.7173H107.266V30.498H106.562V20.4188H112.235H112.233Z" fill="black"/>
<path d="M65.1704 29.9527H69.2589V30.498H64.4641V20.4188H65.1683V29.9527H65.1704Z" fill="black"/>
<path d="M75.8796 20.4188H75.0962L71.0548 30.498H71.8233L72.8721 27.8536H78.0886L79.1375 30.498H79.906L75.8796 20.4188ZM73.0905 27.2946L75.4879 21.2858L77.8703 27.2946H73.0926H73.0905Z" fill="black"/>
<path d="M127.433 20.4188H126.649L122.608 30.498H123.376L124.425 27.8536H129.642L130.69 30.498H131.459L127.433 20.4188ZM124.643 27.2946L127.041 21.2858L129.423 27.2946H124.646H124.643Z" fill="black"/>
<path d="M97.146 20.4188H96.3625L92.3212 30.498H93.0896L94.1385 27.8536H99.355L100.404 30.498H101.172L97.146 20.4188ZM94.3568 27.2946L96.7542 21.2858L99.1367 27.2946H94.359H94.3568Z" fill="black"/>
<path d="M88.0251 20.4188L83.8253 30.498H83.0419L78.8593 20.4188H79.6277L83.4357 29.7369L87.2737 20.4188H88.0251Z" fill="black"/>
<path d="M90.5252 20.4188V30.498H89.821V20.4188H90.5252Z" fill="black"/>
<path d="M119.966 30.498L117.145 26.2058H114.733V30.498H114.028V20.4188H117.053C118.275 20.4188 119.191 20.6816 119.804 21.2093C120.414 21.7351 120.72 22.4354 120.72 23.3064C120.72 24.0813 120.482 24.7208 120.007 25.223C119.532 25.7252 118.84 26.0351 117.931 26.1489L120.814 30.5H119.968L119.966 30.498ZM114.733 25.6585H117.083C118.055 25.6585 118.78 25.4427 119.26 25.0131C119.739 24.5815 119.981 24.0126 119.981 23.3044C119.981 21.7625 119.005 20.9935 117.051 20.9935H114.733V25.6605V25.6585Z" fill="black"/>
<path d="M141.119 30.498H140.415L133.959 21.4683V30.498H133.255V20.4188H133.959L140.415 29.4191V20.4188H141.119V30.498Z" fill="black"/>
<path d="M143.746 22.8611C144.199 22.096 144.827 21.4977 145.625 21.0661C146.423 20.6345 147.32 20.4188 148.311 20.4188C149.566 20.4188 150.619 20.6816 151.475 21.2074C152.331 21.7331 152.959 22.4687 153.355 23.4182H152.539C152.226 22.6669 151.706 22.0744 150.981 21.637C150.255 21.2015 149.365 20.9818 148.309 20.9818C147.464 20.9818 146.695 21.1622 146.006 21.5232C145.317 21.8842 144.773 22.406 144.377 23.0867C143.979 23.7674 143.782 24.5619 143.782 25.4721C143.782 26.3824 143.981 27.1592 144.377 27.8301C144.773 28.501 145.317 29.0189 146.006 29.3857C146.695 29.7526 147.464 29.935 148.309 29.935C149.365 29.935 150.255 29.7173 150.981 29.2798C151.706 28.8443 152.226 28.2499 152.539 27.4986H153.355C152.956 28.4461 152.331 29.1837 151.475 29.7094C150.619 30.2352 149.564 30.498 148.311 30.498C147.318 30.498 146.423 30.2842 145.625 29.8566C144.827 29.4289 144.199 28.8345 143.746 28.0694C143.292 27.3044 143.065 26.4393 143.065 25.4721C143.065 24.505 143.292 23.6262 143.746 22.8611Z" fill="black"/>
<path d="M157.901 29.8585C157.086 29.4309 156.45 28.8325 155.99 28.0636C155.529 27.2946 155.3 26.4255 155.3 25.4584C155.3 24.4913 155.529 23.6124 155.99 22.8474C156.45 22.0823 157.086 21.4859 157.901 21.0602C158.717 20.6326 159.628 20.4188 160.643 20.4188C161.658 20.4188 162.57 20.6326 163.385 21.0602C164.201 21.4879 164.836 22.0842 165.297 22.8474C165.757 23.6124 165.986 24.4834 165.986 25.4584C165.986 26.4334 165.757 27.2926 165.297 28.0636C164.836 28.8325 164.201 29.4309 163.385 29.8585C162.57 30.2862 161.656 30.5 160.643 30.5C159.631 30.5 158.717 30.2862 157.901 29.8585ZM162.993 29.3877C163.693 29.0209 164.244 28.501 164.646 27.8242C165.048 27.1494 165.25 26.3608 165.25 25.4584C165.25 24.556 165.048 23.7556 164.646 23.0788C164.244 22.404 163.693 21.8822 162.993 21.5154C162.293 21.1485 161.51 20.9661 160.643 20.9661C159.776 20.9661 158.993 21.1485 158.293 21.5154C157.593 21.8822 157.038 22.402 156.632 23.0788C156.225 23.7537 156.022 24.5482 156.022 25.4584C156.022 26.3686 156.225 27.1474 156.632 27.8242C157.038 28.4991 157.593 29.0209 158.293 29.3877C158.993 29.7546 159.776 29.937 160.643 29.937C161.51 29.937 162.293 29.7546 162.993 29.3877Z" fill="black"/>
<path d="M74.088 18.5747V19.3771L76.8707 17.5056V16.7033L74.088 18.5747Z" fill="black"/>
<path d="M97.6312 42.3176C97.4349 42.1995 97.2808 42.0306 97.1715 41.8212C97.0596 41.6085 97.0025 41.3653 97 41.085H97.5219C97.5393 41.3248 97.6114 41.5241 97.7406 41.6895C97.8673 41.8516 98.0537 41.936 98.2973 41.936C98.5408 41.936 98.7148 41.8584 98.849 41.6997C98.9832 41.5409 99.0503 41.3383 99.0503 41.0884C99.0503 40.8926 99.0105 40.7338 98.931 40.6123C98.8515 40.4907 98.7521 40.3961 98.6353 40.3354C98.516 40.2712 98.3569 40.2037 98.1556 40.1294C97.9071 40.0416 97.7083 39.9538 97.5592 39.866C97.4101 39.7782 97.2833 39.6397 97.1764 39.454C97.0696 39.2649 97.0174 39.015 97.0174 38.6975C97.0174 38.4206 97.0696 38.1741 97.174 37.958C97.2783 37.7419 97.425 37.5764 97.6138 37.4616C97.8027 37.3467 98.0189 37.286 98.2625 37.286C98.6154 37.286 98.9037 37.4042 99.1274 37.6439C99.351 37.8837 99.4778 38.2011 99.5076 38.5962H98.9683C98.9509 38.4004 98.8739 38.2281 98.7422 38.0795C98.6104 37.931 98.434 37.8567 98.2153 37.8567C98.0115 37.8567 97.8425 37.9276 97.7133 38.0728C97.584 38.218 97.5194 38.4172 97.5194 38.6773C97.5194 38.863 97.5567 39.015 97.6362 39.1298C97.7133 39.248 97.8077 39.3358 97.922 39.3966C98.0338 39.4573 98.1929 39.5283 98.3992 39.6059C98.6477 39.6971 98.8465 39.7917 98.9981 39.8795C99.1497 39.9673 99.279 40.1091 99.3858 40.2948C99.4927 40.4839 99.5474 40.7372 99.5474 41.058C99.5474 41.3079 99.4977 41.5409 99.4007 41.7604C99.3038 41.9799 99.1597 42.1589 98.9708 42.294C98.7794 42.4291 98.5557 42.5 98.2973 42.5C98.0388 42.5 97.8276 42.4392 97.6312 42.321V42.3176Z" fill="black"/>
<path d="M103.255 41.3113H101.618L101.317 42.446H100.8L102.157 37.3738H102.723L104.075 42.446H103.559L103.258 41.3113H103.255ZM103.116 40.771L102.438 38.1944L101.759 40.771H103.116Z" fill="black"/>
<path d="M105.917 37.3434V40.5718C105.917 41.0243 105.999 41.362 106.163 41.5815C106.327 41.801 106.553 41.9124 106.844 41.9124C107.135 41.9124 107.356 41.801 107.52 41.5815C107.684 41.362 107.766 41.0243 107.766 40.5718V37.3434H108.256V40.565C108.256 40.9905 108.193 41.3485 108.067 41.6355C107.94 41.9259 107.771 42.142 107.557 42.2839C107.344 42.4257 107.105 42.4966 106.839 42.4966C106.573 42.4966 106.335 42.4257 106.121 42.2839C105.907 42.142 105.738 41.9259 105.614 41.6355C105.49 41.3451 105.427 40.9871 105.427 40.565V37.3434H105.917ZM107.366 36.2391L106.218 37.0732V36.5768L107.366 35.6616V36.2391Z" fill="black"/>
<path d="M112.075 37.654C112.376 37.86 112.605 38.1572 112.764 38.5422C112.923 38.9272 113.002 39.3797 113.002 39.9031C113.002 40.4265 112.923 40.8791 112.764 41.2607C112.605 41.6422 112.374 41.936 112.075 42.1387C111.775 42.3413 111.422 42.4426 111.012 42.4426H109.844V37.34H111.012C111.422 37.34 111.775 37.4447 112.075 37.6507V37.654ZM112.12 41.3721C112.376 41.0243 112.503 40.5346 112.503 39.9031C112.503 39.2716 112.374 38.7752 112.118 38.4172C111.862 38.0627 111.491 37.8837 111.012 37.8837H110.333V41.8955H111.012C111.496 41.8955 111.867 41.7199 112.12 41.3721Z" fill="black"/>
<path d="M114.911 37.8837V39.5891H116.28V40.1395H114.911V41.8955H116.442V42.446H114.421V37.3366H116.442V37.8871H114.911V37.8837Z" fill="black"/>
<path d="M122.141 42.4426L121.246 40.3556H120.654V42.4426H120.165V37.34H121.378C121.661 37.34 121.902 37.4042 122.096 37.5359C122.292 37.6676 122.439 37.8465 122.536 38.0694C122.633 38.2923 122.68 38.5489 122.68 38.8394C122.68 39.1906 122.605 39.5013 122.456 39.768C122.307 40.0348 122.083 40.2138 121.785 40.3016L122.727 42.4392H122.141V42.4426ZM120.654 39.8221H121.375C121.641 39.8221 121.84 39.7343 121.974 39.5553C122.106 39.3763 122.173 39.1399 122.173 38.8427C122.173 38.5456 122.108 38.3058 121.977 38.1403C121.845 37.9749 121.646 37.8904 121.375 37.8904H120.654V39.8221Z" fill="black"/>
<path d="M124.698 37.8837V39.5891H126.067V40.1395H124.698V41.8955H126.229V42.446H124.208V37.3366H126.229V37.8871H124.698V37.8837Z" fill="black"/>
<path d="M130.585 38.8225C130.481 38.5253 130.329 38.2957 130.133 38.1302C129.937 37.9647 129.706 37.8837 129.445 37.8837C129.184 37.8837 128.948 37.9647 128.736 38.1302C128.525 38.2923 128.361 38.5287 128.242 38.8326C128.123 39.1365 128.06 39.4911 128.06 39.8896C128.06 40.2881 128.12 40.6393 128.242 40.9432C128.361 41.2471 128.528 41.4802 128.736 41.6423C128.945 41.8043 129.184 41.8888 129.445 41.8888C129.81 41.8888 130.113 41.7402 130.349 41.443C130.585 41.1458 130.725 40.744 130.764 40.2341H129.268V39.6937H131.289V40.207C131.259 40.6258 131.162 41.0108 130.998 41.3586C130.834 41.7064 130.615 41.9833 130.347 42.1859C130.078 42.3886 129.778 42.4899 129.447 42.4899C129.099 42.4899 128.781 42.3784 128.493 42.1555C128.205 41.9327 127.978 41.6254 127.812 41.2303C127.645 40.8352 127.561 40.3894 127.561 39.8896C127.561 39.3898 127.645 38.9441 127.812 38.5456C127.978 38.1471 128.207 37.8398 128.493 37.6169C128.781 37.394 129.097 37.2826 129.447 37.2826C129.845 37.2826 130.198 37.4177 130.506 37.6844C130.814 37.9546 131.038 38.3328 131.177 38.8191H130.59L130.585 38.8225Z" fill="black"/>
<path d="M133.192 37.8837V39.5891H134.562V40.1395H133.192V41.8955H134.723V42.446H132.703V37.3366H134.723V37.8871H133.192V37.8837Z" fill="black"/>
<path d="M139.187 42.4426H138.697L136.726 38.3801V42.4426H136.237V37.3332H136.726L138.697 41.389V37.3332H139.187V42.4426Z" fill="black"/>
<path d="M141.282 37.8837V39.5891H142.651V40.1395H141.282V41.8955H142.813V42.446H140.792V37.3366H142.813V37.8871H141.282V37.8837Z" fill="black"/>
<path d="M146.302 42.4426L145.407 40.3556H144.816V42.4426H144.326V37.34H145.539C145.822 37.34 146.063 37.4042 146.257 37.5359C146.454 37.6676 146.6 37.8465 146.697 38.0694C146.794 38.2923 146.841 38.5489 146.841 38.8394C146.841 39.1906 146.767 39.5013 146.618 39.768C146.469 40.0348 146.245 40.2138 145.947 40.3016L146.889 42.4392H146.302V42.4426ZM144.816 39.8221H145.537C145.803 39.8221 146.001 39.7343 146.136 39.5553C146.267 39.3763 146.334 39.1399 146.334 38.8427C146.334 38.5456 146.27 38.3058 146.138 38.1403C146.006 37.9749 145.807 37.8904 145.537 37.8904H144.816V39.8221Z" fill="black"/>
<path d="M150.589 41.3113H148.951L148.651 42.446H148.134L149.491 37.3738H150.057L151.409 42.446H150.892L150.592 41.3113H150.589ZM150.45 40.771L149.771 38.1944L149.093 40.771H150.45Z" fill="black"/>
<path d="M155.082 37.3434V37.8837H154.058V42.4426H153.569V37.8837H152.54V37.3434H155.082Z" fill="black"/>
<path d="M156.944 37.3434V42.446H156.454V37.3434H156.944Z" fill="black"/>
<path d="M161.653 37.3434L160.237 42.446H159.67L158.254 37.3434H158.775L159.956 41.7436L161.136 37.3434H161.653Z" fill="black"/>
<path d="M165.18 41.3113H163.542L163.241 42.446H162.724L164.081 37.3738H164.648L166 42.446H165.483L165.182 41.3113H165.18ZM165.041 40.771L164.362 38.1944L163.684 40.771H165.041Z" fill="black"/>
</g>
<defs>
<clipPath id="clip0_1006_2">
<rect width="166" height="60" fill="white"/>
</clipPath>
</defs>
</svg>
